HIERARCHY
ROOT Hips
{
    OFFSET   0.000000   0.000000   0.000000
    CHANNELS 6 Xposition Yposition Zposition Zrotation Xrotation Yrotation
    JOINT Chest
    {
        OFFSET   0.000000   8.007230   0.000000
        CHANNELS 3 Zrotation Xrotation Yrotation
        JOINT Chest2
        {
            OFFSET   0.000000  22.077100   0.000000
            CHANNELS 3 Zrotation Xrotation Yrotation
            JOINT Neck
            {
                OFFSET   0.000000  23.254800   0.000000
                CHANNELS 3 Zrotation Xrotation Yrotation
                JOINT Head
                {
                    OFFSET   0.000010  14.370000   1.956600
                    CHANNELS 3 Zrotation Xrotation Yrotation
                    End Site
                    {
                        OFFSET   0.000000  19.566000   0.000000
                    }
                }
            }
            JOINT LeftCollar
            {
                OFFSET   3.911900  19.017000  -0.467062
                CHANNELS 3 Zrotation Xrotation Yrotation
                JOINT LeftShoulder
                {
                    OFFSET  10.383700   0.000000   0.000000
                    CHANNELS 3 Zrotation Xrotation Yrotation
                    JOINT LeftElbow
                    {
                        OFFSET  26.662100   0.001193   0.000835
                        CHANNELS 3 Zrotation Xrotation Yrotation
                        JOINT LeftWrist
                        {
                            OFFSET  28.869000  -0.000058  -0.000075
                            CHANNELS 3 Zrotation Xrotation Yrotation
                            JOINT LeftFinger0
                            {
                                OFFSET   2.044660  -2.323460   3.252850
                                CHANNELS 3 Zrotation Xrotation Yrotation
                                JOINT LeftFinger01
                                {
                                    OFFSET   3.088130   0.000000   0.000000
                                    CHANNELS 3 Zrotation Xrotation Yrotation
                                    JOINT LeftFinger02
                                    {
                                        OFFSET   2.639450   0.000000   0.000000
                                        CHANNELS 3 Zrotation Xrotation Yrotation
                                        End Site
                                        {
                                            OFFSET   2.582190   0.000000   0.000000
                                        }
                                    }
                                }
                            }
                            JOINT LeftFinger1
                            {
                                OFFSET   8.364480   0.000000   3.252850
                                CHANNELS 3 Zrotation Xrotation Yrotation
                                JOINT LeftFinger11
                                {
                                    OFFSET   4.646920   0.000000   0.000000
                                    CHANNELS 3 Zrotation Xrotation Yrotation
                                    JOINT LeftFinger12
                                    {
                                        OFFSET   2.323460   0.000000   0.000000
                                        CHANNELS 3 Zrotation Xrotation Yrotation
                                        End Site
                                        {
                                            OFFSET   2.273050   0.000000   0.000000
                                        }
                                    }
                                }
                            }
                            JOINT LeftFinger2
                            {
                                OFFSET   8.364490   0.000016   1.078090
                                CHANNELS 3 Zrotation Xrotation Yrotation
                                JOINT LeftFinger21
                                {
                                    OFFSET   5.111620   0.000000   0.000000
                                    CHANNELS 3 Zrotation Xrotation Yrotation
                                    JOINT LeftFinger22
                                    {
                                        OFFSET   2.788150   0.000012   0.000000
                                        CHANNELS 3 Zrotation Xrotation Yrotation
                                        End Site
                                        {
                                            OFFSET   2.727660   0.000000   0.000000
                                        }
                                    }
                                }
                            }
                            JOINT LeftFinger3
                            {
                                OFFSET   7.899780   0.000014  -1.078090
                                CHANNELS 3 Zrotation Xrotation Yrotation
                                JOINT LeftFinger31
                                {
                                    OFFSET   4.646930   0.000000   0.000000
                                    CHANNELS 3 Zrotation Xrotation Yrotation
                                    JOINT LeftFinger32
                                    {
                                        OFFSET   2.323470   0.000000   0.000000
                                        CHANNELS 3 Zrotation Xrotation Yrotation
                                        End Site
                                        {
                                            OFFSET   2.273050   0.000000   0.000000
                                        }
                                    }
                                }
                            }
                            JOINT LeftFinger4
                            {
                                OFFSET   7.435090   0.000000  -3.252850
                                CHANNELS 3 Zrotation Xrotation Yrotation
                                JOINT LeftFinger41
                                {
                                    OFFSET   3.717550   0.000000   0.000000
                                    CHANNELS 3 Zrotation Xrotation Yrotation
                                    JOINT LeftFinger42
                                    {
                                        OFFSET   1.858770   0.000000   0.000000
                                        CHANNELS 3 Zrotation Xrotation Yrotation
                                        End Site
                                        {
                                            OFFSET   1.818440   0.000000   0.000000
                                        }
                                    }
                                }
                            }
                        }
                    }
                }
            }
            JOINT RightCollar
            {
                OFFSET  -3.911900  19.017000  -0.467063
                CHANNELS 3 Zrotation Xrotation Yrotation
                JOINT RightShoulder
                {
                    OFFSET -10.383700   0.000023   0.000000
                    CHANNELS 3 Zrotation Xrotation Yrotation
                    JOINT RightElbow
                    {
                        OFFSET -26.662100   0.001246   0.001011
                        CHANNELS 3 Zrotation Xrotation Yrotation
                        JOINT RightWrist
                        {
                            OFFSET -28.869000  -0.000026  -0.000078
                            CHANNELS 3 Zrotation Xrotation Yrotation
                            JOINT RightFinger0
                            {
                                OFFSET  -2.044660  -2.323490   3.252850
                                CHANNELS 3 Zrotation Xrotation Yrotation
                                JOINT RightFinger01
                                {
                                    OFFSET  -3.088130   0.000000   0.000000
                                    CHANNELS 3 Zrotation Xrotation Yrotation
                                    JOINT RightFinger02
                                    {
                                        OFFSET  -2.639460   0.000000   0.000000
                                        CHANNELS 3 Zrotation Xrotation Yrotation
                                        End Site
                                        {
                                            OFFSET  -2.582190   0.000000   0.000000
                                        }
                                    }
                                }
                            }
                            JOINT RightFinger1
                            {
                                OFFSET  -8.364480   0.000000   3.252850
                                CHANNELS 3 Zrotation Xrotation Yrotation
                                JOINT RightFinger11
                                {
                                    OFFSET  -4.646920   0.000000   0.000000
                                    CHANNELS 3 Zrotation Xrotation Yrotation
                                    JOINT RightFinger12
                                    {
                                        OFFSET  -2.323470   0.000000   0.000000
                                        CHANNELS 3 Zrotation Xrotation Yrotation
                                        End Site
                                        {
                                            OFFSET  -2.273050   0.000000   0.000000
                                        }
                                    }
                                }
                            }
                            JOINT RightFinger2
                            {
                                OFFSET  -8.364480   0.000000   1.078090
                                CHANNELS 3 Zrotation Xrotation Yrotation
                                JOINT RightFinger21
                                {
                                    OFFSET  -5.111620   0.000000   0.000000
                                    CHANNELS 3 Zrotation Xrotation Yrotation
                                    JOINT RightFinger22
                                    {
                                        OFFSET  -2.788160   0.000000   0.000000
                                        CHANNELS 3 Zrotation Xrotation Yrotation
                                        End Site
                                        {
                                            OFFSET  -2.727660   0.000000   0.000000
                                        }
                                    }
                                }
                            }
                            JOINT RightFinger3
                            {
                                OFFSET  -7.899780   0.000000  -1.078090
                                CHANNELS 3 Zrotation Xrotation Yrotation
                                JOINT RightFinger31
                                {
                                    OFFSET  -4.646930   0.000000   0.000000
                                    CHANNELS 3 Zrotation Xrotation Yrotation
                                    JOINT RightFinger32
                                    {
                                        OFFSET  -2.323470   0.000000   0.000000
                                        CHANNELS 3 Zrotation Xrotation Yrotation
                                        End Site
                                        {
                                            OFFSET  -2.273050   0.000000   0.000000
                                        }
                                    }
                                }
                            }
                            JOINT RightFinger4
                            {
                                OFFSET  -7.435090   0.000000  -3.252850
                                CHANNELS 3 Zrotation Xrotation Yrotation
                                JOINT RightFinger41
                                {
                                    OFFSET  -3.717550   0.000000   0.000000
                                    CHANNELS 3 Zrotation Xrotation Yrotation
                                    JOINT RightFinger42
                                    {
                                        OFFSET  -1.858760   0.000000   0.000000
                                        CHANNELS 3 Zrotation Xrotation Yrotation
                                        End Site
                                        {
                                            OFFSET  -1.818440   0.000000   0.000000
                                        }
                                    }
                                }
                            }
                        }
                    }
                }
            }
        }
    }
    JOINT LeftHip
    {
        OFFSET   9.783010   0.000000   0.000000
        CHANNELS 3 Zrotation Xrotation Yrotation
        JOINT LeftKnee
        {
            OFFSET   0.000073 -41.789100   0.001749
            CHANNELS 3 Zrotation Xrotation Yrotation
            JOINT LeftAnkle
            {
                OFFSET   0.000111 -41.133200  -0.000179
                CHANNELS 3 Zrotation Xrotation Yrotation
                JOINT LeftToe
                {
                    OFFSET   0.000000  -6.358960  14.674500
                    CHANNELS 3 Zrotation Xrotation Yrotation
                    End Site
                    {
                        OFFSET   0.000000   0.000000   3.913200
                    }
                }
            }
        }
    }
    JOINT RightHip
    {
        OFFSET  -9.783010   0.000000   0.000000
        CHANNELS 3 Zrotation Xrotation Yrotation
        JOINT RightKnee
        {
            OFFSET   0.000424 -41.789200   0.005205
            CHANNELS 3 Zrotation Xrotation Yrotation
            JOINT RightAnkle
            {
                OFFSET   0.000000 -41.133200  -0.000155
                CHANNELS 3 Zrotation Xrotation Yrotation
                JOINT RightToe
                {
                    OFFSET   0.000000  -6.358960  14.674500
                    CHANNELS 3 Zrotation Xrotation Yrotation
                    End Site
                    {
                        OFFSET   0.000000   0.000000   3.913200
                    }
                }
            }
        }
    }
}
MOTION
Frames: 4
Frame Time:   0.016667
 -6.101900  89.172700   4.205290  -2.780960 -15.128200  -1.664030   1.312130   9.279490  -2.207790   3.052090  18.497500  -4.728140   3.888270  -3.874340   0.267193   6.469180  -7.747950   7.849490  -8.517020  -8.162340  -2.965180 -44.037000  37.599000 -60.844100   7.523840 -21.612100 -112.185000  -2.734350 -30.353800 -19.727500  37.688800  54.550200 -78.121100 -58.146400   0.001771   0.002980 -32.065600  -0.010381   0.002959 -11.959400   2.394110 -11.159200  -9.976410   0.004012   0.003529  -6.983460   0.004251   0.000272 -13.836500   0.147159  -0.597533 -13.837300   0.006445  -0.004357  -9.215610   0.007922  -0.003924 -55.726900  -6.237060   4.237090 -55.957600  -0.001380  -0.001539 -41.968200   0.003399   0.002443 -53.293000 -10.484900   7.726400 -81.004400  -0.000265  -0.001066 -53.948900   0.000830  -0.000696  11.880300  -4.794140  11.988300  69.358200  12.388600  -3.926190  -4.116740  -4.214350  16.845900 -15.002700  -5.335500   2.234700 -35.280500  29.488500  62.594700  34.510100  -0.008054  -0.021435  12.255100  -0.004727  -0.013526  29.583600   6.827600  11.827500  24.780600  -0.020991   0.047942  17.346000   0.003632   0.042419  28.855700   2.263220   4.099440  43.404600   0.027835   0.114249  28.905100   0.075245   0.042011  28.682400   1.873980   3.421310  39.827700   0.016177   0.140247  26.519900   0.084349   0.068111  37.410100  -0.352849  -0.459478  56.116700   0.208898   0.136482  37.374200   0.137667  -0.086820   4.820880  18.220700   5.226780   2.424350   2.307710   3.613260  -4.215700  -5.601930   0.530038  -0.000000   0.000000   0.000000   6.217930  19.523500  -1.656000   0.956094   0.895880  -7.169860  -3.254330  -6.299920   3.279720   0.000000   0.000000   0.000000
 -6.095090  89.173500   4.199040  -2.790180 -15.125400  -1.688760   1.302450   9.279490  -2.201930   3.031350  18.498100  -4.714570   3.885970  -3.850600   0.266833   6.463230  -7.700580   8.104970  -8.513960  -8.172040  -2.977300 -43.984700  37.597800 -60.896100   7.541160 -21.615600 -112.173000  -2.733340 -30.362900 -19.725400  37.764400  54.603000 -78.268100 -58.103600   0.001762   0.002922 -32.037100  -0.010457   0.002975 -11.969400   2.404670 -11.194800  -9.986030   0.003986   0.003536  -6.990200   0.004257   0.000314 -13.858000   0.162000  -0.656649 -13.859000   0.006515  -0.004358  -9.230060   0.007983  -0.003948 -55.779400  -6.235690   4.227490 -56.009600  -0.001404  -0.001526 -42.007200   0.003446   0.002450 -53.350900 -10.470300   7.699830 -81.086300  -0.000334  -0.001020 -54.003400   0.000775  -0.000730  11.870800  -4.804030  11.993700  69.377600  12.392900  -3.936650  -4.106380  -4.202500  16.812000 -15.015900  -5.338060   2.233410 -35.264200  29.482000  62.624600  34.516600  -0.002102  -0.019627  12.258300  -0.004463  -0.014718  29.588200   6.834160  11.836300  24.781900  -0.021088   0.048630  17.346600   0.003632   0.042023  28.861500   2.269310   4.109230  43.414400   0.012148   0.075640  28.909300   0.047583   0.036505  28.681600   1.881400   3.434810  39.835700   0.002131   0.072616  26.520100   0.045192   0.049450  37.422400  -0.354426  -0.459456  56.135500   0.123714   0.116924  37.386500   0.107952  -0.036289   4.812250  18.221000   5.233850   2.423500   2.308650   3.628110  -4.209810  -5.600440   0.536179  -0.000000   0.000000   0.000000   6.209910  19.514000  -1.649790   0.956268   0.897464  -7.167250  -3.243340  -6.292190   3.300670  -0.000000   0.000000  -0.000000
 -6.088710  89.174300   4.193040  -2.798110 -15.123600  -1.707830   1.289910   9.279410  -2.194620   3.004530  18.498600  -4.697520   3.879930  -3.834350   0.266491   6.452370  -7.668210   8.305690  -8.500790  -8.176220  -2.986360 -43.933800  37.598200 -60.949800   7.563340 -21.640900 -112.181000  -2.757150 -30.333900 -19.729000  37.804500  54.627900 -78.395300 -58.061400   0.001759   0.002934 -32.009000  -0.010532   0.002989 -12.026700   2.439110 -11.293500 -10.037200   0.003970   0.003537  -7.026060   0.004254   0.000347 -13.913400   0.188805  -0.761755 -13.914700   0.006586  -0.004368  -9.267150   0.008050  -0.003966 -55.871500  -6.234400   4.210730 -56.100800  -0.001426  -0.001519 -42.075600   0.003485   0.002456 -53.451000 -10.445000   7.654190 -81.227500  -0.000406  -0.000986 -54.097500   0.000708  -0.000757  11.860900  -4.813570  11.992100  69.399600  12.392300  -3.947450  -4.092710  -4.186870  16.788000 -15.015500  -5.329510   2.237390 -35.258300  29.479100  62.635700  34.521500  -0.002096  -0.027635  12.260800  -0.004462  -0.016504  29.588400   6.838420  11.842900  24.783500  -0.021012   0.049800  17.347400   0.003629   0.041383  28.861100   2.272210   4.113910  43.415200   0.006583   0.044526  28.909800   0.042313   0.033508  28.681200   1.885720   3.442730  39.834200  -0.000212   0.020909  26.520400   0.028430   0.036216  37.416300  -0.355757  -0.459759  56.126400   0.090541   0.103559  37.380400   0.091456  -0.014029   4.806440  18.221900   5.237860   2.422880   2.308050   3.639490  -4.204760  -5.598430   0.541943  -0.000000   0.000000   0.000000   6.202700  19.511900  -1.643880   0.957095   0.891734  -7.163120  -3.234270  -6.281350   3.314310  -0.000000   0.000000  -0.000000
 -6.082760  89.175100   4.186690  -2.804370 -15.122000  -1.722530   1.275850   9.279260  -2.186260   2.974450  18.499200  -4.678080   3.871990  -3.822180   0.266160   6.438890  -7.644120   8.451110  -8.487600  -8.179810  -2.994120 -43.900700  37.590400 -60.988300   7.578030 -21.672900 -112.206000  -2.803390 -30.273000 -19.738800  37.820800  54.639200 -78.466800 -58.036100   0.001755   0.002945 -31.992200  -0.010606   0.003003 -12.075100   2.464530 -11.365300 -10.080200   0.003956   0.003538  -7.056150   0.004251   0.000378 -13.953400   0.207066  -0.833147 -13.954900   0.006657  -0.004384  -9.293930   0.008116  -0.003986 -55.958800  -6.232830   4.194840 -56.187300  -0.001445  -0.001516 -42.140500   0.003521   0.002462 -53.530900 -10.424800   7.617680 -81.340300  -0.000480  -0.000956 -54.172700   0.000637  -0.000783  11.850100  -4.822460  11.990400  69.423700  12.389100  -3.960310  -4.077480  -4.167090  16.768900 -15.014600  -5.316410   2.244350 -35.255700  29.481200  62.644200  34.525000  -0.002095  -0.035644  12.262500  -0.004462  -0.017578  29.587000   6.842460  11.850000  24.785100  -0.020479   0.050366  17.348300   0.003628   0.039269  28.860800   2.274280   4.117520  43.415300   0.004666   0.018882  28.909900   0.040526   0.031104  28.680800   1.889430   3.449540  39.830400  -0.000903  -0.006931  26.520600   0.022852   0.029361  37.407000  -0.356507  -0.460266  56.112600   0.080386   0.095497  37.371100   0.083198  -0.005873   4.803360  18.222300   5.240190   2.421960   2.305740   3.648410  -4.200420  -5.595130   0.546412  -0.000000   0.000000   0.000000   6.195630  19.509600  -1.637980   0.957918   0.886002  -7.159630  -3.225280  -6.271670   3.323790  -0.000000   0.000000  -0.000000
